<svg width="17" height="19" viewBox="0 0 17 19" fill="none" xmlns="http://www.w3.org/2000/svg">
<g clip-path="url(#clip0_2140_23782)">
<path d="M8.25 0.25C7.62773 0.25 7.125 0.752734 7.125 1.375V2.05C4.55859 2.57031 2.625 4.84141 2.625 7.5625V8.22344C2.625 9.87578 2.0168 11.4719 0.91992 12.7094L0.659764 13.0012C0.364452 13.3316 0.294139 13.8063 0.473436 14.2105C0.652733 14.6148 1.05703 14.875 1.5 14.875H15C15.443 14.875 15.8437 14.6148 16.0266 14.2105C16.2094 13.8063 16.1355 13.3316 15.8402 13.0012L15.5801 12.7094C14.4832 11.4719 13.875 9.8793 13.875 8.22344V7.5625C13.875 4.84141 11.9414 2.57031 9.375 2.05V1.375C9.375 0.752734 8.87226 0.25 8.25 0.25ZM9.84258 17.5926C10.2645 17.1707 10.5 16.5977 10.5 16H8.25H6C6 16.5977 6.23555 17.1707 6.65742 17.5926C7.0793 18.0145 7.65234 18.25 8.25 18.25C8.84765 18.25 9.4207 18.0145 9.84258 17.5926Z" fill="#9CA3AF"/>
</g>
<defs>
<clipPath id="clip0_2140_23782">
<path d="M0.375 0.25H16.125V18.25H0.375V0.25Z" fill="white"/>
</clipPath>
</defs>
</svg>
