<svg width="18" height="18" viewBox="0 0 18 18" fill="none" xmlns="http://www.w3.org/2000/svg">
<path fill-rule="evenodd" clip-rule="evenodd" d="M17.4663 15.993L15.7311 17.7283C15.7311 17.7283 11.2221 19.6607 4.78071 13.2193C-1.66067 6.77793 0.271747 2.26896 0.271747 2.26896L2.00704 0.533664C2.79102 -0.250317 4.0876 -0.158174 4.75283 0.728799L6.40919 2.93728C6.95319 3.66261 6.88106 4.67758 6.23995 5.31869L4.78071 6.77793C4.78071 6.77793 4.78071 8.06618 7.35726 10.6427C9.93379 13.2193 11.2221 13.2193 11.2221 13.2193L12.6813 11.7601C13.3224 11.119 14.3374 11.0468 15.0627 11.5908L17.2712 13.2472C18.1582 13.9124 18.2503 15.209 17.4663 15.993Z" fill="#2D3043"/>
</svg>
