<svg width="104" height="104" viewBox="0 0 104 104" fill="none" xmlns="http://www.w3.org/2000/svg">
<circle cx="52.4899" cy="51.9376" r="51.5101" fill="#F5F8FF"/>
<path d="M52.0002 53.7498C44.6036 53.7498 38.5836 47.7298 38.5836 40.3332C38.5836 32.9365 44.6036 26.9165 52.0002 26.9165C59.3969 26.9165 65.4169 32.9365 65.4169 40.3332C65.4169 47.7298 59.3969 53.7498 52.0002 53.7498ZM52.0002 30.4165C46.5402 30.4165 42.0836 34.8732 42.0836 40.3332C42.0836 45.7932 46.5402 50.2498 52.0002 50.2498C57.4602 50.2498 61.9169 45.7932 61.9169 40.3332C61.9169 34.8732 57.4602 30.4165 52.0002 30.4165Z" fill="#FF4141"/>
<path d="M31.9573 77.0831C31.0006 77.0831 30.2073 76.2898 30.2073 75.3331C30.2073 65.3698 39.9839 57.2498 52.0006 57.2498C54.3573 57.2498 56.6672 57.5531 58.9072 58.1831C59.8406 58.4398 60.3773 59.3964 60.1206 60.3298C59.864 61.2631 58.9073 61.7998 57.9739 61.5432C56.0606 61.0065 54.0539 60.7498 52.0006 60.7498C41.9206 60.7498 33.7073 67.2831 33.7073 75.3331C33.7073 76.2898 32.9139 77.0831 31.9573 77.0831Z" fill="#FF4141"/>
<path d="M66.0002 77.0832C63.2469 77.0832 60.6336 76.0565 58.6036 74.2132C57.7869 73.5132 57.0636 72.6498 56.5036 71.6932C55.4769 70.0132 54.9169 68.0298 54.9169 65.9998C54.9169 63.0832 56.0369 60.3532 58.0436 58.2765C60.1436 56.1065 62.9669 54.9165 66.0002 54.9165C69.1736 54.9165 72.1836 56.2699 74.2369 58.6032C76.0569 60.6332 77.0836 63.2465 77.0836 65.9998C77.0836 66.8865 76.9669 67.7732 76.7336 68.6132C76.5003 69.6632 76.0569 70.7599 75.4502 71.7165C73.5136 75.0299 69.8736 77.0832 66.0002 77.0832ZM66.0002 58.4165C63.9236 58.4165 62.0103 59.2331 60.5636 60.7031C59.1869 62.1265 58.4169 63.9932 58.4169 65.9998C58.4169 67.3765 58.7903 68.7298 59.5136 69.8965C59.8869 70.5498 60.3769 71.1331 60.9369 71.6231C62.3369 72.9064 64.1336 73.6065 66.0002 73.6065C68.6369 73.6065 71.1336 72.2065 72.4869 69.9432C72.8836 69.2898 73.1869 68.5432 73.3502 67.8199C73.5136 67.2132 73.5836 66.6299 73.5836 66.0232C73.5836 64.1565 72.8836 62.3599 71.6236 60.9599C70.2236 59.3266 68.1702 58.4165 66.0002 58.4165Z" fill="#FF4141"/>
<path d="M63.4799 70.1995C63.0366 70.1995 62.5933 70.0363 62.2433 69.6863C61.5666 69.0096 61.5666 67.8896 62.2433 67.2129L67.1666 62.2895C67.8432 61.6128 68.9632 61.6128 69.6399 62.2895C70.3166 62.9661 70.3166 64.0861 69.6399 64.7628L64.7166 69.6863C64.3666 70.0363 63.9233 70.1995 63.4799 70.1995Z" fill="#FF4141"/>
<path d="M68.4739 70.2461C68.0305 70.2461 67.5872 70.0827 67.2372 69.7327L62.3139 64.8094C61.6372 64.1328 61.6372 63.0128 62.3139 62.3361C62.9906 61.6594 64.1106 61.6594 64.7872 62.3361L69.7105 67.2594C70.3872 67.9361 70.3872 69.0561 69.7105 69.7327C69.3605 70.0827 68.9172 70.2461 68.4739 70.2461Z" fill="#FF4141"/>
</svg>
