<svg width="12" height="19" viewBox="0 0 12 19" fill="none" xmlns="http://www.w3.org/2000/svg">
<g clip-path="url(#clip0_2140_23769)">
<path d="M5.74999 0.25C6.37226 0.25 6.87499 0.752734 6.87499 1.375V2.63008C6.93124 2.63711 6.98397 2.64414 7.04022 2.65469C7.05429 2.6582 7.06483 2.6582 7.0789 2.66172L8.7664 2.97109C9.37811 3.08359 9.78241 3.6707 9.66991 4.27891C9.55741 4.88711 8.9703 5.29492 8.3621 5.18242L6.69218 4.87656C5.59179 4.71484 4.62147 4.82383 3.93944 5.09453C3.25741 5.36523 2.98319 5.73789 2.91991 6.08242C2.8496 6.45859 2.90233 6.66953 2.9621 6.79961C3.02538 6.93672 3.15546 7.09141 3.4121 7.26367C3.98515 7.63984 4.86405 7.88594 6.00311 8.18828L6.10507 8.21641C7.11054 8.48359 8.34101 8.80703 9.25507 9.40469C9.75429 9.73164 10.2254 10.1746 10.5172 10.7934C10.816 11.4227 10.8793 12.1258 10.7422 12.8746C10.4996 14.2105 9.57851 15.1035 8.43593 15.5711C7.95429 15.768 7.43046 15.8945 6.87499 15.9578V17.125C6.87499 17.7473 6.37226 18.25 5.74999 18.25C5.12772 18.25 4.62499 17.7473 4.62499 17.125V15.898C4.61093 15.8945 4.59335 15.8945 4.57929 15.891H4.57226C3.71444 15.7574 2.30468 15.3883 1.35546 14.9664C0.789443 14.7133 0.532802 14.0488 0.785927 13.4828C1.03905 12.9168 1.70351 12.6602 2.26952 12.9133C3.00429 13.2402 4.21366 13.5637 4.91327 13.6727C6.03476 13.8379 6.95936 13.743 7.58515 13.4863C8.17929 13.2437 8.44999 12.8922 8.52733 12.4703C8.59413 12.0977 8.5414 11.8832 8.48163 11.7531C8.41483 11.6125 8.28476 11.4578 8.0246 11.2855C7.44804 10.9094 6.56561 10.6633 5.42304 10.3609L5.3246 10.3363C4.32265 10.0691 3.09218 9.74219 2.17811 9.14453C1.6789 8.81758 1.21132 8.37109 0.919521 7.75234C0.624209 7.12305 0.564443 6.41992 0.705068 5.67109C0.958193 4.32812 1.96366 3.45625 3.10624 3.00273C3.57382 2.81641 4.0871 2.68984 4.62499 2.61602V1.375C4.62499 0.752734 5.12772 0.25 5.74999 0.25Z" fill="#9CA3AF"/>
</g>
<defs>
<clipPath id="clip0_2140_23769">
<path d="M0.125 0.25H11.375V18.25H0.125V0.25Z" fill="white"/>
</clipPath>
</defs>
</svg>
