<svg width="19" height="19" viewBox="0 0 19 19" fill="none" xmlns="http://www.w3.org/2000/svg">
<g clip-path="url(#clip0_2140_23775)">
<path d="M3.13672 2.88672L1.94141 1.69141C1.41055 1.16055 0.5 1.53672 0.5 2.28555V6.15625C0.5 6.62383 0.876172 7 1.34375 7H5.21445C5.9668 7 6.34297 6.08945 5.81211 5.55859L4.7293 4.47578C5.94922 3.25586 7.63672 2.5 9.5 2.5C13.2266 2.5 16.25 5.52344 16.25 9.25C16.25 12.9766 13.2266 16 9.5 16C8.06563 16 6.73672 15.5535 5.64336 14.7906C5.13359 14.4355 4.43398 14.5586 4.07539 15.0684C3.7168 15.5781 3.84336 16.2777 4.35312 16.6363C5.81562 17.6523 7.59102 18.25 9.5 18.25C14.4711 18.25 18.5 14.2211 18.5 9.25C18.5 4.27891 14.4711 0.25 9.5 0.25C7.01445 0.25 4.76445 1.25898 3.13672 2.88672ZM9.5 4.75C9.03242 4.75 8.65625 5.12617 8.65625 5.59375V9.25C8.65625 9.475 8.74414 9.68945 8.90234 9.84766L11.4336 12.3789C11.7641 12.7094 12.2984 12.7094 12.6254 12.3789C12.9523 12.0484 12.9559 11.5141 12.6254 11.1871L10.3402 8.90195V5.59375C10.3402 5.12617 9.96406 4.75 9.49648 4.75H9.5Z" fill="#9CA3AF"/>
</g>
<defs>
<clipPath id="clip0_2140_23775">
<path d="M0.5 0.25H18.5V18.25H0.5V0.25Z" fill="white"/>
</clipPath>
</defs>
</svg>
