<svg width="20" height="14" viewBox="0 0 20 14" fill="none" xmlns="http://www.w3.org/2000/svg">
<path d="M8.75 -4.88162e-05C8.33438 -4.88162e-05 8 0.334326 8 0.749951C8 1.16558 8.33438 1.49995 8.75 1.49995H10.5531L11.0656 2.44683L8 4.99995L6.58437 3.58433C6.20937 3.20933 5.7 2.99995 5.16875 2.99995H2C1.44687 2.99995 1 3.44683 1 3.99995V4.99995H4C6.7625 4.99995 9 7.23745 9 9.99995C9 10.3437 8.96562 10.6781 8.9 11H11.1C11.0344 10.6781 11 10.3437 11 9.99995C11 8.3687 11.7812 6.9187 12.9906 6.0062L13.4719 6.89995C12.575 7.63433 12 8.74995 12 9.99995C12 12.2093 13.7906 14 16 14C18.2094 14 20 12.2093 20 9.99995C20 7.79058 18.2094 5.99995 16 5.99995C15.5781 5.99995 15.1719 6.06558 14.7906 6.18745L13.0688 2.99995H15C15.5531 2.99995 16 2.55308 16 1.99995V0.999951C16 0.446826 15.5531 -4.88162e-05 15 -4.88162e-05H14.3625C14.1281 -4.88162e-05 13.9031 0.0812012 13.7219 0.231201L12.2406 1.46558L11.8031 0.653076C11.5844 0.249951 11.1625 -0.00317383 10.7031 -0.00317383H8.75V-4.88162e-05ZM14.4594 8.72495L15.3406 10.3562C15.5375 10.7218 15.9938 10.8562 16.3563 10.6593C16.7188 10.4625 16.8562 10.0062 16.6594 9.6437L15.7781 8.01245C15.85 8.00308 15.925 7.99995 16 7.99995C17.1031 7.99995 18 8.89683 18 9.99995C18 11.1031 17.1031 12 16 12C14.8969 12 14 11.1031 14 9.99995C14 9.51558 14.1719 9.07183 14.4594 8.72495ZM5.85313 10.75C5.55625 11.4843 4.8375 12 4 12C2.89687 12 2 11.1031 2 9.99995C2 8.89683 2.89687 7.99995 4 7.99995C4.84062 7.99995 5.55938 8.51558 5.85313 9.24995H7.92812C7.57812 7.39995 5.95312 5.99995 4 5.99995C1.79063 5.99995 0 7.79058 0 9.99995C0 12.2093 1.79063 14 4 14C5.95312 14 7.57812 12.6 7.93125 10.75H5.85313ZM4 11C4.26522 11 4.51957 10.8946 4.70711 10.7071C4.89464 10.5195 5 10.2652 5 9.99995C5 9.73473 4.89464 9.48038 4.70711 9.29284C4.51957 9.10531 4.26522 8.99995 4 8.99995C3.73478 8.99995 3.48043 9.10531 3.29289 9.29284C3.10536 9.48038 3 9.73473 3 9.99995C3 10.2652 3.10536 10.5195 3.29289 10.7071C3.48043 10.8946 3.73478 11 4 11Z" fill="white"/>
</svg>
