<svg width="111" height="112" viewBox="0 0 111 112" fill="none" xmlns="http://www.w3.org/2000/svg">
<path d="M46.3884 9.84396C52.2141 7.38621 58.7856 7.3862 64.6112 9.84395L81.0859 16.7943C86.8131 19.2106 91.3461 23.8028 93.6878 29.5608L100.742 46.9077C103.045 52.5695 103.045 58.9068 100.742 64.5686L93.6878 81.9155C91.3461 87.6736 86.8131 92.2657 81.0859 94.682L64.6112 101.632C58.7856 104.09 52.2141 104.09 46.3884 101.632L29.9138 94.682C24.1866 92.2657 19.6536 87.6736 17.3119 81.9155L10.2572 64.5686C7.95464 58.9068 7.95464 52.5695 10.2572 46.9077L17.3119 29.5608C19.6536 23.8027 24.1866 19.2106 29.9138 16.7944L46.3884 9.84396Z" fill="#117752"/>
<path d="M44.8701 6.24414C51.6666 3.37691 59.3334 3.37683 66.1299 6.24414L82.6045 13.1953C89.2861 16.0142 94.5746 21.3713 97.3066 28.0889L104.361 45.4355C107.048 52.0409 107.048 59.4347 104.361 66.04L97.3066 83.3867C94.5747 90.1045 89.2862 95.4623 82.6045 98.2812L66.1299 105.231C59.3333 108.099 51.6667 108.099 44.8701 105.231L28.3955 98.2812C21.7137 95.4623 16.4254 90.1045 13.6934 83.3867L6.63867 66.04C3.9524 59.4346 3.95237 52.0409 6.63867 45.4355L13.6934 28.0889C16.4254 21.3712 21.7139 16.0142 28.3955 13.1953L44.8701 6.24414Z" stroke="#29AD7D" stroke-opacity="0.5" stroke-width="7.81341"/>
<path fill-rule="evenodd" clip-rule="evenodd" d="M67.1031 43.6819C67.6498 43.1299 68.3879 42.8192 69.1577 42.817C69.9276 42.8149 70.6673 43.1214 71.217 43.6703C71.7668 44.2192 72.0823 44.9665 72.0954 45.7505C72.1085 46.5344 71.8182 47.2922 71.2872 47.8599L55.6916 67.7154C55.4236 68.0094 55.1001 68.2454 54.7404 68.4092C54.3808 68.573 53.9924 68.6612 53.5986 68.6686C53.2047 68.6761 52.8134 68.6025 52.4481 68.4524C52.0827 68.3023 51.7509 68.0787 51.4723 67.7949L41.1391 57.2664C40.8512 56.9932 40.6203 56.6637 40.4602 56.2976C40.3001 55.9315 40.2139 55.5364 40.207 55.1357C40.2001 54.735 40.2724 54.3369 40.4198 53.9654C40.5672 53.5938 40.7865 53.2562 41.0647 52.9728C41.343 52.6894 41.6744 52.466 42.0392 52.3159C42.4041 52.1658 42.7948 52.0921 43.1883 52.0992C43.5817 52.1063 43.9697 52.194 44.3291 52.3571C44.6885 52.5202 45.012 52.7554 45.2802 53.0486L53.4609 61.3767L67.0288 43.7694C67.0531 43.7386 67.0792 43.7094 67.107 43.6819H67.1031Z" fill="white"/>
</svg>
