<svg width="111" height="112" viewBox="0 0 111 112" fill="none" xmlns="http://www.w3.org/2000/svg">
<path d="M46.3884 9.84396C52.2141 7.38621 58.7856 7.3862 64.6112 9.84395L81.0859 16.7943C86.8131 19.2106 91.3461 23.8028 93.6878 29.5608L100.742 46.9077C103.045 52.5695 103.045 58.9068 100.742 64.5686L93.6878 81.9155C91.3461 87.6736 86.8131 92.2657 81.0859 94.682L64.6112 101.632C58.7856 104.09 52.2141 104.09 46.3884 101.632L29.9138 94.682C24.1866 92.2657 19.6536 87.6736 17.3119 81.9155L10.2572 64.5686C7.95464 58.9068 7.95464 52.5695 10.2572 46.9077L17.3119 29.5608C19.6536 23.8027 24.1866 19.2106 29.9138 16.7944L46.3884 9.84396Z" fill="#DBB930"/>
<path d="M44.8701 6.24414C51.6666 3.37691 59.3334 3.37683 66.1299 6.24414L82.6045 13.1953C89.2861 16.0142 94.5746 21.3713 97.3066 28.0889L104.361 45.4355C107.048 52.0409 107.048 59.4347 104.361 66.04L97.3066 83.3867C94.5747 90.1045 89.2862 95.4623 82.6045 98.2812L66.1299 105.231C59.3333 108.099 51.6667 108.099 44.8701 105.231L28.3955 98.2812C21.7137 95.4623 16.4254 90.1045 13.6934 83.3867L6.63867 66.04C3.9524 59.4346 3.95237 52.0409 6.63867 45.4355L13.6934 28.0889C16.4254 21.3712 21.7139 16.0142 28.3955 13.1953L44.8701 6.24414Z" stroke="#DBB930" stroke-opacity="0.5" stroke-width="7.81341"/>
<path d="M67.0007 69L67.5554 66.2276C67.8487 64.7612 68.6327 63.4096 68.9123 61.9406C68.9703 61.6359 69.0007 61.3215 69.0007 61C69.0007 58.2386 66.7621 56 64.0007 56C61.2392 56 59.0007 58.2386 59.0007 61C59.0007 61.3215 59.031 61.6359 59.089 61.9406C59.3686 63.4096 60.1526 64.7612 60.446 66.2276L61.0007 69M67.0007 69H61.0007M67.0007 69L71.9932 70.3318C73.75 70.7222 75 72.2804 75 74.0801C75 75.1404 74.1404 76 73.0801 76H71.9932H56H54.9199C53.8596 76 53 75.1404 53 74.0801C53 72.2804 54.25 70.7222 56.0068 70.3318L61.0007 69" stroke="white" stroke-width="3"/>
<path d="M65 50V48C65 42.3431 65 39.5147 63.2426 37.7574C61.4853 36 58.6569 36 53 36H47C41.3431 36 38.5147 36 36.7574 37.7574C35 39.5147 35 42.3431 35 48V64C35 69.6569 35 72.4853 36.7574 74.2426C38.5147 76 41.3431 76 47 76" stroke="white" stroke-width="3" stroke-linecap="round"/>
<path d="M43 60H51" stroke="white" stroke-width="3" stroke-linecap="round"/>
<path d="M43 54H51" stroke="white" stroke-width="3" stroke-linecap="round"/>
<path d="M43 66H51" stroke="white" stroke-width="3" stroke-linecap="round"/>
</svg>
